<svg width="58" height="28" viewBox="0 0 58 28" fill="none" xmlns="http://www.w3.org/2000/svg">
<path d="M0.5 12C0.5 5.64873 5.64873 0.5 12 0.5H46C52.3513 0.5 57.5 5.64873 57.5 12V26C57.5 26.8284 56.8284 27.5 56 27.5H12C5.64873 27.5 0.5 22.3513 0.5 16V12Z" fill="#8E55EA" style="fill:#8E55EA;fill:color(display-p3 0.5555 0.3340 0.9168);fill-opacity:1;"/>
<path d="M0.5 12C0.5 5.64873 5.64873 0.5 12 0.5H46C52.3513 0.5 57.5 5.64873 57.5 12V26C57.5 26.8284 56.8284 27.5 56 27.5H12C5.64873 27.5 0.5 22.3513 0.5 16V12Z" stroke="url(#paint0_linear_2001_3817)" style=""/>
<path d="M12.9588 18V9.27273H14.2756V13.0653H18.6264V9.27273H19.9474V18H18.6264V14.1946H14.2756V18H12.9588ZM23.6676 18.1449C23.2528 18.1449 22.8778 18.0682 22.5426 17.9148C22.2074 17.7585 21.9418 17.5327 21.7457 17.2372C21.5526 16.9418 21.456 16.5795 21.456 16.1506C21.456 15.7812 21.527 15.4773 21.669 15.2386C21.8111 15 22.0028 14.8111 22.2443 14.6719C22.4858 14.5327 22.7557 14.4276 23.054 14.3565C23.3523 14.2855 23.6563 14.2315 23.9659 14.1946C24.358 14.1491 24.6761 14.1122 24.9205 14.0838C25.1648 14.0526 25.3423 14.0028 25.4531 13.9347C25.5639 13.8665 25.6193 13.7557 25.6193 13.6023V13.5724C25.6193 13.2003 25.5142 12.9119 25.304 12.7074C25.0966 12.5028 24.7869 12.4006 24.375 12.4006C23.946 12.4006 23.608 12.4957 23.3608 12.6861C23.1165 12.8736 22.9474 13.0824 22.8537 13.3125L21.6562 13.0398C21.7983 12.642 22.0057 12.321 22.2784 12.0767C22.554 11.8295 22.8707 11.6506 23.2287 11.5398C23.5866 11.4261 23.9631 11.3693 24.358 11.3693C24.6193 11.3693 24.8963 11.4006 25.1889 11.4631C25.4844 11.5227 25.7599 11.6335 26.0156 11.7955C26.2741 11.9574 26.4858 12.1889 26.6506 12.4901C26.8153 12.7884 26.8977 13.1761 26.8977 13.6534V18H25.6534V17.1051H25.6023C25.5199 17.2699 25.3963 17.4318 25.2315 17.5909C25.0668 17.75 24.8551 17.8821 24.5966 17.9872C24.3381 18.0923 24.0284 18.1449 23.6676 18.1449ZM23.9446 17.1222C24.2969 17.1222 24.598 17.0526 24.848 16.9134C25.1009 16.7741 25.2926 16.5923 25.4233 16.3679C25.5568 16.1406 25.6236 15.8977 25.6236 15.6392V14.7955C25.5781 14.8409 25.4901 14.8835 25.3594 14.9233C25.2315 14.9602 25.0852 14.9929 24.9205 15.0213C24.7557 15.0469 24.5952 15.071 24.4389 15.0938C24.2827 15.1136 24.152 15.1307 24.0469 15.1449C23.7997 15.1761 23.5739 15.2287 23.3693 15.3026C23.1676 15.3764 23.0057 15.483 22.8835 15.6222C22.7642 15.7585 22.7045 15.9403 22.7045 16.1676C22.7045 16.483 22.821 16.7216 23.054 16.8835C23.2869 17.0426 23.5838 17.1222 23.9446 17.1222ZM29.869 14.1136V18H28.5948V9.27273H29.8519V12.5199H29.9329C30.0863 12.1676 30.3207 11.8878 30.636 11.6804C30.9513 11.473 31.3633 11.3693 31.8718 11.3693C32.3207 11.3693 32.7127 11.4616 33.0479 11.6463C33.386 11.831 33.6474 12.1065 33.832 12.473C34.0195 12.8366 34.1133 13.2912 34.1133 13.8366V18H32.8391V13.9901C32.8391 13.5099 32.7156 13.1378 32.4684 12.8736C32.2212 12.6065 31.8775 12.473 31.4371 12.473C31.136 12.473 30.8661 12.5369 30.6275 12.6648C30.3917 12.7926 30.2056 12.9801 30.0692 13.2273C29.9357 13.4716 29.869 13.767 29.869 14.1136ZM36.6531 18.081C36.4201 18.081 36.2198 17.9986 36.0522 17.8338C35.8846 17.6662 35.8008 17.4645 35.8008 17.2287C35.8008 16.9957 35.8846 16.7969 36.0522 16.6321C36.2198 16.4645 36.4201 16.3807 36.6531 16.3807C36.886 16.3807 37.0863 16.4645 37.2539 16.6321C37.4215 16.7969 37.5053 16.9957 37.5053 17.2287C37.5053 17.3849 37.4656 17.5284 37.386 17.6591C37.3093 17.7869 37.207 17.8892 37.0792 17.9659C36.9513 18.0426 36.8093 18.081 36.6531 18.081ZM40.0515 18.081C39.8185 18.081 39.6183 17.9986 39.4506 17.8338C39.283 17.6662 39.1992 17.4645 39.1992 17.2287C39.1992 16.9957 39.283 16.7969 39.4506 16.6321C39.6183 16.4645 39.8185 16.3807 40.0515 16.3807C40.2844 16.3807 40.4847 16.4645 40.6523 16.6321C40.82 16.7969 40.9038 16.9957 40.9038 17.2287C40.9038 17.3849 40.864 17.5284 40.7844 17.6591C40.7077 17.7869 40.6055 17.8892 40.4776 17.9659C40.3498 18.0426 40.2077 18.081 40.0515 18.081ZM43.4499 18.081C43.217 18.081 43.0167 17.9986 42.8491 17.8338C42.6815 17.6662 42.5977 17.4645 42.5977 17.2287C42.5977 16.9957 42.6815 16.7969 42.8491 16.6321C43.0167 16.4645 43.217 16.3807 43.4499 16.3807C43.6829 16.3807 43.8832 16.4645 44.0508 16.6321C44.2184 16.7969 44.3022 16.9957 44.3022 17.2287C44.3022 17.3849 44.2624 17.5284 44.1829 17.6591C44.1062 17.7869 44.0039 17.8892 43.8761 17.9659C43.7482 18.0426 43.6062 18.081 43.4499 18.081Z" fill="white" style="fill:white;fill-opacity:1;"/>
<defs>
<linearGradient id="paint0_linear_2001_3817" x1="1.41105e-07" y1="3.33333" x2="64.4371" y2="29.663" gradientUnits="userSpaceOnUse">
<stop stop-color="white" stop-opacity="0.4" style="stop-color:white;stop-opacity:0.4;"/>
<stop offset="1" stop-color="white" stop-opacity="0.1" style="stop-color:white;stop-opacity:0.1;"/>
</linearGradient>
</defs>
</svg>
